
<?xml version="1.0" standalone="no"?>
<!DOCTYPE svg PUBLIC "-//W3C//DTD SVG 20010904//EN"
 "http://www.w3.org/TR/2001/REC-SVG-20010904/DTD/svg10.dtd">
<svg version="1.0" xmlns="http://www.w3.org/2000/svg"
 width="1258.000000pt" height="514.000000pt" viewBox="0 0 1258.000000 514.000000"
 preserveAspectRatio="xMidYMid meet">

<g transform="translate(0.000000,514.000000) scale(0.100000,-0.100000)"
fill="#000000" stroke="none">
<path d="M0 2570 l0 -2570 6290 0 6290 0 0 2570 0 2570 -6290 0 -6290 0 0
-2570z m1167 1442 c539 -1577 979 -2852 983 -2852 3 0 67 179 142 398 75 218
326 947 559 1620 l422 1222 127 0 128 0 40 -117 c22 -65 253 -732 512 -1483
260 -751 493 -1428 519 -1504 l47 -140 32 90 c29 83 559 1624 929 2702 l156
452 158 0 c88 0 159 -2 159 -4 0 -3 -229 -663 -509 -1468 -280 -805 -568
-1635 -641 -1845 l-133 -383 -143 0 -142 0 -10 27 c-18 50 -786 2247 -948
2713 l-159 456 -376 -1081 c-207 -594 -458 -1312 -556 -1595 l-180 -515 -140
-3 -141 -3 -10 28 c-23 65 -611 1745 -927 2653 -189 542 -347 993 -350 1003
-7 16 5 17 156 17 l164 0 132 -388z m5794 -77 c87 -253 338 -984 557 -1624
l399 -1164 20 59 c95 274 1075 3110 1093 3162 l12 32 126 0 127 0 77 -223
c159 -462 1017 -2944 1030 -2980 l14 -38 126 368 c164 479 963 2798 978 2841
l12 32 160 0 c148 0 160 -1 153 -17 -11 -30 -684 -1963 -991 -2851 l-289 -832
-144 2 -144 3 -100 285 c-55 157 -305 875 -556 1597 l-457 1311 -36 -106 c-28
-83 -1026 -2941 -1070 -3065 l-10 -28 -141 3 -140 3 -224 640 c-446 1275
-1063 3046 -1063 3051 0 2 73 3 162 2 l161 -3 158 -460z"/>
</g>
</svg>
